<svg width="900" height="450" viewBox="0 0 900 450" fill="none" xmlns="http://www.w3.org/2000/svg">
<defs>
  <linearGradient id="gradR" x1="0" y1="0" x2="1" y2="1">
    <stop offset="0%" stop-color="#0ea5e9"/>
    <stop offset="100%" stop-color="#0f172a"/>
  </linearGradient>
  <linearGradient id="gradR2" x1="0" y1="1" x2="1" y2="0">
    <stop offset="0%" stop-color="#a855f7" stop-opacity="0.3"/>
    <stop offset="100%" stop-color="#6366f1" stop-opacity="0.55"/>
  </linearGradient>
</defs>
<rect width="900" height="450" rx="18" fill="url(#gradR)"/>
<rect x="42" y="58" width="816" height="334" rx="14" fill="url(#gradR2)" stroke="#a855f7" stroke-opacity="0.35" stroke-width="2"/>
<path d="M140 200C140 180 200 150 280 150C360 150 420 180 420 200C420 220 360 250 280 250C200 250 140 220 140 200Z" fill="#0f172a" fill-opacity="0.55" stroke="#c084fc" stroke-width="2" stroke-opacity="0.5"/>
<path d="M520 160H740" stroke="#e2e8f0" stroke-width="6" stroke-linecap="round" stroke-opacity="0.7"/>
<path d="M520 200H700" stroke="#e2e8f0" stroke-width="6" stroke-linecap="round" stroke-opacity="0.55"/>
<path d="M520 240H660" stroke="#e2e8f0" stroke-width="6" stroke-linecap="round" stroke-opacity="0.4"/>
<rect x="200" y="190" width="140" height="120" rx="14" fill="#111827" stroke="#e5e7eb" stroke-opacity="0.35" stroke-width="2"/>
<path d="M210 280L250 220L290 260L330 210" stroke="#a855f7" stroke-width="6" stroke-linecap="round" stroke-linejoin="round" stroke-opacity="0.8"/>
<circle cx="250" cy="220" r="10" fill="#a855f7"/>
<circle cx="290" cy="260" r="10" fill="#a855f7"/>
<circle cx="210" cy="280" r="10" fill="#a855f7"/>
<circle cx="330" cy="210" r="10" fill="#a855f7"/>
<text x="140" y="130" fill="#f8fafc" font-family="Inter, Arial, sans-serif" font-size="26" font-weight="700" letter-spacing="-0.5">Research Detail Preview</text>
<text x="520" y="310" fill="#e2e8f0" font-family="Inter, Arial, sans-serif" font-size="16" font-weight="500" opacity="0.8">Stored locally for modal content.</text>
</svg>
